<?xml version="1.0" encoding="UTF-8"?>
<svg id="Layer_2" data-name="Layer 2" xmlns="http://www.w3.org/2000/svg" viewBox="0 0 26 58">
  <g id="Icons">
    <g>
      <path d="M21,54v1H.1c.06.18.14.35.24.5l1.07,1.61c.37.56.99.89,1.66.89h19.86c.67,0,1.29-.33,1.66-.89l1.07-1.61c.22-.32.34-.71.34-1.11v-30.32c0-.67-.33-1.29-.89-1.66-.46-.31-.73-.83-.71-1.37v-.04c.03-.54.32-1.03.78-1.3l.3-.18c.33-.33.52-.79.52-1.26v-.26c0-.55-.45-1-1-1H1c-.55,0-1,.45-1,1v.26c0,.47.19.93.52,1.26l.3.18c.14.08.25.19.36.3h11.82v2H1.29c-.11.16-.24.3-.4.41-.56.37-.89.99-.89,1.66v28.93h21v1ZM5,49h-2v-15h2v15ZM5,30h-2v-4h2v4Z" style="fill: #fff;"/>
      <path d="M17.9,10h-9.8c-2.97,0-5.52,2.09-6.1,5h22c-.58-2.91-3.13-5-6.1-5Z" style="fill: #fff;"/>
      <path d="M17,0h-8v8h8V0ZM13,5.5c-.83,0-1.5-.67-1.5-1.5s.67-1.5,1.5-1.5,1.5.67,1.5,1.5-.67,1.5-1.5,1.5Z" style="fill: #fff;"/>
    </g>
  </g>
</svg>