<?xml version="1.0" encoding="UTF-8"?>
<svg id="Layer_2" data-name="Layer 2" xmlns="http://www.w3.org/2000/svg" viewBox="0 0 30 54">
  <g id="Icons">
    <g>
      <circle cx="29" cy="1" r="1" style="fill: #fff;"/>
      <circle cx="29" cy="5" r="1" style="fill: #fff;"/>
      <circle cx="29" cy="9" r="1" style="fill: #fff;"/>
      <circle cx="29" cy="13" r="1" style="fill: #fff;"/>
      <circle cx="29" cy="17" r="1" style="fill: #fff;"/>
      <circle cx="26" cy="3" r="1" style="fill: #fff;"/>
      <circle cx="26" cy="7" r="1" style="fill: #fff;"/>
      <circle cx="26" cy="11" r="1" style="fill: #fff;"/>
      <circle cx="26" cy="15" r="1" style="fill: #fff;"/>
      <circle cx="23" cy="5" r="1" style="fill: #fff;"/>
      <circle cx="23" cy="9" r="1" style="fill: #fff;"/>
      <circle cx="23" cy="13" r="1" style="fill: #fff;"/>
      <circle cx="20" cy="7" r="1" style="fill: #fff;"/>
      <circle cx="20" cy="11" r="1" style="fill: #fff;"/>
      <circle cx="17" cy="9" r="1" style="fill: #fff;"/>
      <path d="M16.59,53.41l.82-.82c.38-.38.59-.89.59-1.42v-29.17c0-.55-.45-1-1-1H1c-.55,0-1,.45-1,1v29.17c0,.53.21,1.04.59,1.42l.82.82c.38.38.89.59,1.42.59h12.34c.53,0,1.04-.21,1.42-.59ZM5,49h-2v-15h2v15ZM5,30h-2v-4h2v4Z" style="fill: #fff;"/>
      <path d="M1.2,17.98l-.2,1.02h16l-.2-1.02c-.47-2.3-2.47-3.95-4.8-3.98h-6c-2.33.03-4.33,1.69-4.8,3.98Z" style="fill: #fff;"/>
      <path d="M6,12h6v-2h-2v-2h2v-2h-6v6Z" style="fill: #fff;"/>
    </g>
  </g>
</svg>