<?xml version="1.0" encoding="UTF-8"?>
<svg id="Layer_1" xmlns="http://www.w3.org/2000/svg" version="1.1" viewBox="0 0 199.6 50">
  <!-- Generator: Adobe Illustrator 29.3.1, SVG Export Plug-In . SVG Version: 2.1.0 Build 151)  -->
  <defs>
    <style>
      .st0 {
        fill: none;
      }

      .st1 {
        fill: #fff;
      }
    </style>
  </defs>
  <path class="st1" d="M23.5,27.5c-2.2,1.4-3.1,1.8-4.3,1.8s-2.6-1.1-2.6-2.7c0-2.4,2.1-5.4,5.2-7.9,2.5-2,5-2.9,7.5-2.9s3.9.7,3.9,1.6-.4,1-.8,1-.5,0-.7-.2l-1.1-.6c-.7-.4-1.9-.6-2.9-.6-2,0-3.9.9-5.6,2.7-1.8,2-3.2,4.6-3.2,6.1s.7,2,1.8,2,2.1-.6,3.2-1.7c.9-.8,1.3-1.4,2.7-3.4,2.2-3.3,2.9-3.9,4-3.9s.8.2.8.7-.3.7-.8.7h-.6c-1.2.1-1.9,1.3-4.5,7.6-2.9,6.9-4.8,10.2-7.4,12.7-2.9,2.8-7.1,4.6-10.8,4.6s-6.7-2.3-6.7-5.4,2.5-5.4,5.6-5.4,3.8,1.2,3.8,2.5-.5,1.2-1.1,1.2-.6-.2-1-.6c-1-1.3-1.6-1.7-2.8-1.7-2,0-3.7,1.8-3.7,3.9s2.4,4.7,5.7,4.7,6-1.2,8.2-3.2c1.6-1.5,3.3-3.9,4.8-7l1.4-2.7c.7-1.5,1.3-2.6,2-3.7ZM32.9,29h-2.4c.4-.5,1.1-1.5,1.6-2.4l1-1.7,3.8-6.3c.2-.4.3-.6.3-.7,0-.1,0-.3-.2-.3-.4,0-1.4.6-2.9,1.7h-.2c0,.1-.3-.4-.3-.4,1.7-1.6,4.1-2.9,5-2.9s.9.3.9.8-.3,1.2-.9,2.3c1.6-1.7,3.5-2.9,4.7-2.9s1.5.4,1.5,1.1-.3,1-.8,1-.3,0-.6-.1l-.3-.2c-.2,0-.5-.1-.8-.1-1.6,0-3.7,1.7-5.9,4.8-1.3,1.9-3,4.7-3.7,6.4ZM56,18.8l-3.1,5.1c-.3.6-.8,1.3-1.1,2-.3.7-.4.9-.4,1.2s.1.5.4.5c.4,0,1.4-.7,2.8-1.9l.3.6c-1.7,1.7-3.8,3-5,3s-1.2-.4-1.2-1,.3-1.3.7-2.2c-2.1,2-3.9,3.1-5.3,3.1s-2.4-1-2.4-2.5c0-2.5,2.2-5.8,5.5-8.3,2.4-1.8,4.8-2.7,7.2-2.7s3.2.6,3.2,1.4-.4.8-.9.8-.4,0-.8-.2c-.3-.1-.6-.2-1-.4-.6-.2-1.4-.4-2.1-.4-1.3,0-2.7.5-4.1,1.6-2.4,1.9-4.5,5.2-4.5,7.2s.6,1.7,1.4,1.7c1.3,0,3.1-1.2,4.8-3.4,1.2-1.5,2.7-3.6,3.6-5.2h1.9ZM60.7,25.3c0-.3,0-.5,0-.6v-.6c0,0-.4-1.6-.4-1.6-.4-2.1-.5-3-.5-3.7,0-1.6,1-2.4,2.8-2.4s1.2,0,2,0h.4s0,0,0,0l1.5-2.8C71.1,4.8,75.8.4,80.6.4s2.5.5,2.5,1.3-.4.9-1,.9-.6,0-.8-.2l-.7-.4c-.5-.3-1.1-.4-1.6-.4-1.2,0-2.7.8-4.2,2.2-1.1.9-2.4,2.5-3.3,4.1-.8,1.2-2.1,3.8-3.3,6.4l-.6,1.2-.6,1.2h.1c.5,0,1.1,0,1.2,0,1.2,0,1.8-.3,1.9-1v-.5c.2-.5.5-.8,1-.8s.8.4.8.9c0,1.2-1.2,2.1-3,2.1s-1.8,0-2.3,0l-.8,1.7-.8,1.7-3.1,6.7-.2.5c0,.7,0,1.1,0,1.7,0,8.8-4.8,14.8-11.9,14.8s-3.6-.7-3.6-1.7.3-.8.9-.8.4,0,1,.4c.4.2.8.4,1,.4.7,0,1.7-.9,3.3-3,.9-1.1,1.8-2.4,2.8-4.2,1.4-2.4,2.7-4.8,4.6-8.8l.4-.8.4-.9ZM61.3,24l.9-2,.9-2c.3-.7.8-1.6,1.3-2.7h0c0-.1,0-.1,0-.1-.3,0-.5,0-.6,0-1.9,0-2.9,1.2-2.9,3.3s0,1.9.3,3.1v.5ZM61,29.4l-.2.3-2,3.6c-2.4,3.9-5.6,7.8-8.2,9.6.4,0,.7,0,1,0,5.3,0,9.4-5.8,9.4-13.4v-.2ZM72.8,28c0,.7,0,1.1,0,1.7,0,8.8-4.8,14.8-11.9,14.8s-3.6-.7-3.6-1.7.3-.8.9-.8.4,0,1,.4c.4.2.8.4,1,.4.7,0,1.7-.9,3.3-3,.9-1.1,1.8-2.4,2.8-4.2,1.4-2.4,2.7-4.8,4.6-8.8l.4-.8.4-.9c0-.3,0-.5,0-.6v-.6c0,0-.4-1.6-.4-1.6-.4-2.1-.5-3-.5-3.7,0-1.6,1-2.4,2.8-2.4s1.2,0,2,0h.4s0,0,0,0l1.5-2.8C82.1,4.8,86.8.4,91.6.4s2.5.5,2.5,1.3-.4.9-1,.9-.6,0-.8-.2l-.7-.4c-.5-.3-1.1-.4-1.6-.4-1.2,0-2.7.8-4.2,2.2-1.1.9-2.4,2.5-3.3,4.1-.8,1.2-2.1,3.8-3.3,6.4l-.6,1.2-.6,1.2h1.1c.3,0,.6,0,1,0,1.1,0,1.8-.1,2.8-.4,1.1-.4,1.2-.4,1.5-.4.6,0,1.1.4,1.1,1s-.1.9-1,2.2l-3.6,6c-.6,1.1-1,1.8-1,2.1s.1.3.4.3c.5,0,1.4-.6,2.8-1.7l.2-.2.2.6c-1.9,1.8-3.8,3-4.9,3s-1.1-.4-1.1-1.1.2-1.2,1.1-2.5l3.9-6.5c.7-1.2.7-1.2.7-1.4s0-.2-.3-.2h-.4c-.3,0-.8,0-1.3,0s-1.5,0-2,0h-1.3c0,0,0,0,0,0l-.8,1.7-.8,1.7-3.1,6.7-.2.5ZM87.3,9.5c0-.9.7-1.7,1.5-1.7s.9.4.9,1c0,.8-.8,1.7-1.5,1.7s-.9-.4-.9-1ZM72.4,24l.9-2,.9-2c.3-.7.8-1.6,1.3-2.7h0c0-.1,0-.1,0-.1-.3,0-.5,0-.6,0-1.9,0-2.9,1.2-2.9,3.3s0,1.9.3,3.1v.5ZM72.1,29.4v.3c-.1,0-2.2,3.6-2.2,3.6-2.4,3.9-5.6,7.8-8.2,9.6.4,0,.7,0,1,0,5.3,0,9.4-5.8,9.4-13.4v-.2ZM92,20.6h-.1c0-.1-.3-.5-.3-.5-1.3-1.4-1.5-1.7-1.5-2.4s.8-1.4,1.9-1.4.9,0,2.1.2h.2c3.3-6.3,6.4-9.5,9.4-9.5s1.2.2,1.2.6-.3.6-.7.6-.3,0-.5,0c-.5,0-.6,0-.8,0-.9,0-2,.5-2.9,1.3-1.4,1.4-2.5,3.4-4,7.2h0c.5.2.9.2,1.3.2,1.4,0,2-.4,2.1-1.3v-.4c0-.4.3-.7.7-.7s.9.3.9.9c0,1.3-1.4,2.2-3.5,2.2s-1.2,0-1.7-.1c0,.3-.2.5-.4,1.2-.5,1.3-1,2.4-1.4,3.2.5.9.8,1.7.8,2.5,0,3.1-2.7,5.1-6.7,5.1s-3.4-.6-3.4-1.5.3-.7.7-.7,0,0,.1,0h.3c.1.1.3.1.4.1.5,0,1.1-.2,1.8-.9,1-.8,2.6-3,3.5-4.6l.6-1.1h0ZM92.4,19.8h0c.3-.7.5-1.2.8-1.6.3-.6.4-.9.6-1.2-.3,0-.5,0-.8,0-.9,0-1.5.5-1.5,1.2s.2.8.6,1.3l.2.2s0,0,0,0ZM93.4,22.4c-1.7,2.9-4.1,4.8-6.5,5.3.9.3,1.5.4,2.3.4,2.6,0,4.7-1.8,4.7-4s-.1-1.2-.5-1.8ZM109.2,20.6c0,2-1.6,4.8-3.9,6.8-1.5,1.3-3,2-4.5,2s-3.2-1.3-3.2-3.5,2.4-6.2,5.8-8.4c1.8-1.1,3.8-1.8,5.4-1.8s1.9.5,1.9,1.1-.5.8-1.1.8-.6,0-1.3-.3c-.8-.2-1.1-.3-1.6-.3-3.1,0-6.9,4.7-6.9,8.5s.7,2.4,2,2.4c2.7,0,5.7-3.5,5.7-6.5s0-.8-.3-1.6c0-.2-.1-.5-.1-.7,0-.4.4-.9.9-.9.7,0,1.2.9,1.2,2.2ZM115.7,9.5l.5-.5v-1.5l-.5-.5.3-.3.5.5h1.5l.5-.5.3.3-.5.5v1.5l.5.5-.3.3-.5-.5h-1.5l-.5.5-.3-.3ZM115.7,15.9l.5-.5v-1.5l-.5-.5.3-.3.5.5h1.5l.5-.5.3.3-.5.5v1.5l.5.5-.3.3-.5-.5h-1.5l-.5.5-.3-.3ZM118.9,12.7l.5-.5v-1.5l-.5-.5.3-.3.5.5h1.5l.5-.5.3.3-.5.5v1.5l.5.5-.3.3-.5-.5h-1.5l-.5.5-.3-.3ZM112.5,12.7l.5-.5v-1.5l-.5-.5.3-.3.5.5h1.5l.5-.5.3.3-.5.5v1.5l.5.5-.3.3-.5-.5h-1.5l-.5.5-.3-.3Z"/>
  <path class="st1" d="M78.3,41.6l.6-.6v-.8l-.6-.6.2-.2-.2-.2.6-.6v-.8l-.6-.6.2-.2.6.6h.8l.6-.6.2.2-.6.6v.8l.6.6-.2.2.2.2-.6.6v.8l.6.6-.2.2.2.2-.6.6v.8l.6.6-.2.2.2.2-.6.6v.8l.6.6-.2.2.2.2-.6.6v.8l.6.6-.2.2-.6-.6h-.8l-.6.6-.2-.2.6-.6v-.8l-.6-.6.2-.2-.2-.2.6-.6v-.8l-.6-.6.2-.2-.2-.2.6-.6v-.8l-.6-.6.2-.2-.2-.2ZM85.5,41.6l.6-.6v-.8l-.6-.6.2-.2-.2-.2.6-.6v-.8l-.6-.6.2-.2.6.6h.8l.6-.6.2.2-.6.6v.8l.6.6-.2.2.2.2-.6.6v.8l.6.6-.2.2.2.2-.6.6v.8l.6.6-.2.2.2.2-.6.6v.8l.6.6-.2.2.2.2-.6.6v.8l.6.6-.2.2-.6-.6h-.8l-.6.6-.2-.2.6-.6v-.8l-.6-.6.2-.2-.2-.2.6-.6v-.8l-.6-.6.2-.2-.2-.2.6-.6v-.8l-.6-.6.2-.2-.2-.2ZM92.7,41.6l.6-.6v-.8l-.6-.6.2-.2-.2-.2.6-.6v-.8l-.6-.6.2-.2.6.6h.8l.6-.6.2.2-.6.6v.8l.6.6-.2.2.2.2-.6.6v.8l.6.6-.2.2.2.2-.6.6v.8l.6.6-.2.2.2.2-.6.6v.8l.6.6-.2.2.2.2-.6.6v.8l.6.6-.2.2-.6-.6h-.8l-.6.6-.2-.2.6-.6v-.8l-.6-.6.2-.2-.2-.2.6-.6v-.8l-.6-.6.2-.2-.2-.2.6-.6v-.8l-.6-.6.2-.2-.2-.2ZM83.1,41.6l.6-.6v-.8l-.6-.6.2-.2.6.6h.8l.6-.6.2.2-.6.6v.8l.6.6-.2.2-.6-.6h-.8l-.6.6-.2-.2ZM90.3,41.6l.6-.6v-.8l-.6-.6.2-.2.6.6h.8l.6-.6.2.2-.6.6v.8l.6.6-.2.2-.6-.6h-.8l-.6.6-.2-.2ZM87.9,44l.6-.6v-.8l-.6-.6.2-.2.6.6h.8l.6-.6.2.2-.6.6v.8l.6.6-.2.2-.6-.6h-.8l-.6.6-.2-.2ZM80.7,44l.6-.6v-.8l-.6-.6.2-.2.6.6h.8l.6-.6.2.2-.6.6v.8l.6.6-.2.2-.6-.6h-.8l-.6.6-.2-.2ZM79.1,43.6l-.6.6.6.6h.8l.6-.6-.6-.6h-.8ZM79.1,41.2l-.6.6.6.6h.8l.6-.6-.6-.6h-.8ZM79.1,46l-.6.6.6.6h.8l.6-.6-.6-.6h-.8ZM86.3,46l-.6.6.6.6h.8l.6-.6-.6-.6h-.8ZM93.5,46l-.6.6.6.6h.8l.6-.6-.6-.6h-.8ZM86.3,41.2l-.6.6.6.6h.8l.6-.6-.6-.6h-.8ZM86.3,38.8l-.6.6.6.6h.8l.6-.6-.6-.6h-.8ZM86.3,43.6l-.6.6.6.6h.8l.6-.6-.6-.6h-.8ZM79.1,38.8l-.6.6.6.6h.8l.6-.6-.6-.6h-.8ZM93.5,43.6l-.6.6.6.6h.8l.6-.6-.6-.6h-.8ZM93.5,38.8l-.6.6.6.6h.8l.6-.6-.6-.6h-.8ZM93.5,41.2l-.6.6.6.6h.8l.6-.6-.6-.6h-.8ZM99.9,44l.6-.6v-.8l-.6-.6.2-.2-.2-.2.6-.6v-.8l-.6-.6.2-.2-.2-.2.6-.6v-.8l-.6-.6.2-.2.6.6h.8l.6-.6.2.2-.6.6v.8l.6.6-.2.2.2.2-.6.6v.8l.6.6-.2.2.2.2-.6.6v.8l.6.6-.2.2.2.2-.6.6v.8l.6.6-.2.2.2.2-.6.6v.8l.6.6-.2.2-.6-.6h-.8l-.6.6-.2-.2.6-.6v-.8l-.6-.6.2-.2-.2-.2.6-.6v-.8l-.6-.6.2-.2-.2-.2ZM107.1,44l.6-.6v-.8l-.6-.6.2-.2-.2-.2.6-.6v-.8l-.6-.6.2-.2-.2-.2.6-.6v-.8l-.6-.6.2-.2.6.6h.8l.6-.6.2.2-.6.6v.8l.6.6-.2.2.2.2-.6.6v.8l.6.6-.2.2.2.2-.6.6v.8l.6.6-.2.2-.6-.6h-.8l-.6.6-.2-.2ZM104.7,44l.6-.6v-.8l-.6-.6.2-.2.6.6h.8l.6-.6.2.2-.6.6v.8l.6.6-.2.2-.6-.6h-.8l-.6.6-.2-.2ZM102.3,44l.6-.6v-.8l-.6-.6.2-.2.6.6h.8l.6-.6.2.2-.6.6v.8l.6.6-.2.2-.6-.6h-.8l-.6.6-.2-.2ZM102.3,48.8l.6-.6v-.8l-.6-.6.2-.2.6.6h.8l.6-.6.2.2-.6.6v.8l.6.6-.2.2-.6-.6h-.8l-.6.6-.2-.2ZM104.7,39.2l.6-.6v-.8l-.6-.6.2-.2.6.6h.8l.6-.6.2.2-.6.6v.8l.6.6-.2.2-.6-.6h-.8l-.6.6-.2-.2ZM104.7,48.8l.6-.6v-.8l-.6-.6.2-.2.6.6h.8l.6-.6.2.2-.6.6v.8l.6.6-.2.2-.6-.6h-.8l-.6.6-.2-.2ZM107.1,48.8l.6-.6v-.8l-.6-.6.2-.2.6.6h.8l.6-.6.2.2-.6.6v.8l.6.6-.2.2-.6-.6h-.8l-.6.6-.2-.2ZM102.3,39.2l.6-.6v-.8l-.6-.6.2-.2.6.6h.8l.6-.6.2.2-.6.6v.8l.6.6-.2.2-.6-.6h-.8l-.6.6-.2-.2ZM100.7,41.2l-.6.6.6.6h.8l.6-.6-.6-.6h-.8ZM101.5,40l.6-.6-.6-.6h-.8l-.6.6.6.6h.8ZM107.9,41.2l-.6.6.6.6h.8l.6-.6-.6-.6h-.8ZM108.7,40l.6-.6-.6-.6h-.8l-.6.6.6.6h.8ZM100.7,43.6l-.6.6.6.6h.8l.6-.6-.6-.6h-.8ZM100.7,46l-.6.6.6.6h.8l.6-.6-.6-.6h-.8ZM114.9,41.6l.6-.6v-.8l-.6-.6.2-.2-.2-.2.6-.6v-.8l-.6-.6.2-.2-.2-.2.6-.6v-.8l-.6-.6.2-.2.6.6h.8l.6-.6.2.2-.6.6v.8l.6.6-.2.2.2.2-.6.6v.8l.6.6-.2.2.2.2-.6.6v.8l.6.6-.2.2.2.2-.6.6v.8l.6.6-.2.2.2.2-.6.6v.8l.6.6-.2.2.2.2-.6.6v.8l.6.6-.2.2-.6-.6h-.8l-.6.6-.2-.2.6-.6v-.8l-.6-.6.2-.2-.2-.2.6-.6v-.8l-.6-.6.2-.2-.2-.2.6-.6v-.8l-.6-.6.2-.2-.2-.2ZM112.5,39.2l.6-.6v-.8l-.6-.6.2-.2.6.6h.8l.6-.6.2.2-.6.6v.8l.6.6-.2.2-.6-.6h-.8l-.6.6-.2-.2ZM119.7,48.8l.6-.6v-.8l-.6-.6.2-.2.6.6h.8l.6-.6.2.2-.6.6v.8l.6.6-.2.2-.6-.6h-.8l-.6.6-.2-.2ZM117.3,39.2l.6-.6v-.8l-.6-.6.2-.2.6.6h.8l.6-.6.2.2-.6.6v.8l.6.6-.2.2-.6-.6h-.8l-.6.6-.2-.2ZM119.7,39.2l.6-.6v-.8l-.6-.6.2-.2.6.6h.8l.6-.6.2.2-.6.6v.8l.6.6-.2.2-.6-.6h-.8l-.6.6-.2-.2ZM117.3,48.8l.6-.6v-.8l-.6-.6.2-.2.6.6h.8l.6-.6.2.2-.6.6v.8l.6.6-.2.2-.6-.6h-.8l-.6.6-.2-.2ZM115.7,46l-.6.6.6.6h.8l.6-.6-.6-.6h-.8ZM115.7,38.8l-.6.6.6.6h.8l.6-.6-.6-.6h-.8ZM115.7,43.6l-.6.6.6.6h.8l.6-.6-.6-.6h-.8ZM116.5,37.6l.6-.6-.6-.6h-.8l-.6.6.6.6h.8ZM115.7,41.2l-.6.6.6.6h.8l.6-.6-.6-.6h-.8ZM133.1,41.6l.6-.6v-.8l-.6-.6.2-.2-.2-.2.6-.6v-.8l-.6-.6.2-.2.6.6h.8l.6-.6.2.2-.6.6v.8l.6.6-.2.2.2.2-.6.6v.8l.6.6-.2.2.2.2-.6.6v.8l.6.6-.2.2.2.2-.6.6v.8l.6.6-.2.2.2.2-.6.6v.8l.6.6-.2.2-.6-.6h-.8l-.6.6-.2-.2.6-.6v-.8l-.6-.6.2-.2-.2-.2.6-.6v-.8l-.6-.6.2-.2-.2-.2.6-.6v-.8l-.6-.6.2-.2-.2-.2ZM125.9,44l.6-.6v-.8l-.6-.6.2-.2.6.6h.8l.6-.6.2.2-.6.6v.8l.6.6-.2.2.2.2-.6.6v.8l.6.6-.2.2.2.2-.6.6v.8l.6.6-.2.2-.6-.6h-.8l-.6.6-.2-.2.6-.6v-.8l-.6-.6.2-.2-.2-.2.6-.6v-.8l-.6-.6.2-.2-.2-.2ZM130.7,48.8l.6-.6v-.8l-.6-.6.2-.2.6.6h.8l.6-.6.2.2-.6.6v.8l.6.6-.2.2-.6-.6h-.8l-.6.6-.2-.2ZM128.3,48.8l.6-.6v-.8l-.6-.6.2-.2.6.6h.8l.6-.6.2.2-.6.6v.8l.6.6-.2.2-.6-.6h-.8l-.6.6-.2-.2ZM130.7,44l.6-.6v-.8l-.6-.6.2-.2.6.6h.8l.6-.6.2.2-.6.6v.8l.6.6-.2.2-.6-.6h-.8l-.6.6-.2-.2ZM125.9,39.2l.6-.6v-.8l-.6-.6.2-.2.6.6h.8l.6-.6.2.2-.6.6v.8l.6.6-.2.2-.6-.6h-.8l-.6.6-.2-.2ZM130.7,39.2l.6-.6v-.8l-.6-.6.2-.2.6.6h.8l.6-.6.2.2-.6.6v.8l.6.6-.2.2-.6-.6h-.8l-.6.6-.2-.2ZM128.3,44l.6-.6v-.8l-.6-.6.2-.2.6.6h.8l.6-.6.2.2-.6.6v.8l.6.6-.2.2-.6-.6h-.8l-.6.6-.2-.2ZM128.3,39.2l.6-.6v-.8l-.6-.6.2-.2.6.6h.8l.6-.6.2.2-.6.6v.8l.6.6-.2.2-.6-.6h-.8l-.6.6-.2-.2ZM133.9,38.8l-.6.6.6.6h.8l.6-.6-.6-.6h-.8ZM127.5,47.2l.6-.6-.6-.6h-.8l-.6.6.6.6h.8ZM133.9,46l-.6.6.6.6h.8l.6-.6-.6-.6h-.8ZM133.9,41.2l-.6.6.6.6h.8l.6-.6-.6-.6h-.8ZM133.9,43.6l-.6.6.6.6h.8l.6-.6-.6-.6h-.8ZM127.5,44.8l.6-.6-.6-.6h-.8l-.6.6.6.6h.8ZM147.5,41.6l.6-.6v-.8l-.6-.6.2-.2-.2-.2.6-.6v-.8l-.6-.6.2-.2-.2-.2.6-.6v-.8l-.6-.6.2-.2-.2-.2.6-.6v-.8l-.6-.6.2-.2.6.6h.8l.6-.6.2.2-.6.6v.8l.6.6-.2.2.2.2-.6.6v.8l.6.6-.2.2.2.2-.6.6v.8l.6.6-.2.2.2.2-.6.6v.8l.6.6-.2.2.2.2-.6.6v.8l.6.6-.2.2.2.2-.6.6v.8l.6.6-.2.2.2.2-.6.6v.8l.6.6-.2.2-.6-.6h-.8l-.6.6-.2-.2.6-.6v-.8l-.6-.6.2-.2-.2-.2.6-.6v-.8l-.6-.6.2-.2-.2-.2.6-.6v-.8l-.6-.6.2-.2-.2-.2ZM140.3,39.2l.6-.6v-.8l-.6-.6.2-.2.6.6h.8l.6-.6.2.2-.6.6v.8l.6.6-.2.2.2.2-.6.6v.8l.6.6-.2.2.2.2-.6.6v.8l.6.6-.2.2.2.2-.6.6v.8l.6.6-.2.2.2.2-.6.6v.8l.6.6-.2.2-.6-.6h-.8l-.6.6-.2-.2.6-.6v-.8l-.6-.6.2-.2-.2-.2.6-.6v-.8l-.6-.6.2-.2-.2-.2.6-.6v-.8l-.6-.6.2-.2-.2-.2.6-.6v-.8l-.6-.6.2-.2-.2-.2ZM142.7,48.8l.6-.6v-.8l-.6-.6.2-.2.6.6h.8l.6-.6.2.2-.6.6v.8l.6.6-.2.2-.6-.6h-.8l-.6.6-.2-.2ZM145.1,39.2l.6-.6v-.8l-.6-.6.2-.2.6.6h.8l.6-.6.2.2-.6.6v.8l.6.6-.2.2-.6-.6h-.8l-.6.6-.2-.2ZM145.1,46.4l.6-.6v-.8l-.6-.6.2-.2.6.6h.8l.6-.6.2.2-.6.6v.8l.6.6-.2.2-.6-.6h-.8l-.6.6-.2-.2ZM142.7,39.2l.6-.6v-.8l-.6-.6.2-.2.6.6h.8l.6-.6.2.2-.6.6v.8l.6.6-.2.2-.6-.6h-.8l-.6.6-.2-.2ZM141.9,47.2l.6-.6-.6-.6h-.8l-.6.6.6.6h.8ZM148.3,43.6l-.6.6.6.6h.8l.6-.6-.6-.6h-.8ZM148.3,38.8l-.6.6.6.6h.8l.6-.6-.6-.6h-.8ZM148.3,41.2l-.6.6.6.6h.8l.6-.6-.6-.6h-.8ZM149.1,37.6l.6-.6-.6-.6h-.8l-.6.6.6.6h.8ZM148.3,46l-.6.6.6.6h.8l.6-.6-.6-.6h-.8ZM141.9,40l.6-.6-.6-.6h-.8l-.6.6.6.6h.8ZM149.1,35.2l.6-.6-.6-.6h-.8l-.6.6.6.6h.8ZM141.9,44.8l.6-.6-.6-.6h-.8l-.6.6.6.6h.8ZM141.9,42.4l.6-.6-.6-.6h-.8l-.6.6.6.6h.8ZM161.9,41.6l.6-.6v-.8l-.6-.6.2-.2-.2-.2.6-.6v-.8l-.6-.6.2-.2.6.6h.8l.6-.6.2.2-.6.6v.8l.6.6-.2.2.2.2-.6.6v.8l.6.6-.2.2.2.2-.6.6v.8l.6.6-.2.2.2.2-.6.6v.8l.6.6-.2.2.2.2-.6.6v.8l.6.6-.2.2-.6-.6h-.8l-.6.6-.2-.2.6-.6v-.8l-.6-.6.2-.2-.2-.2.6-.6v-.8l-.6-.6.2-.2-.2-.2.6-.6v-.8l-.6-.6.2-.2-.2-.2ZM154.7,44l.6-.6v-.8l-.6-.6.2-.2.6.6h.8l.6-.6.2.2-.6.6v.8l.6.6-.2.2.2.2-.6.6v.8l.6.6-.2.2.2.2-.6.6v.8l.6.6-.2.2-.6-.6h-.8l-.6.6-.2-.2.6-.6v-.8l-.6-.6.2-.2-.2-.2.6-.6v-.8l-.6-.6.2-.2-.2-.2ZM159.5,48.8l.6-.6v-.8l-.6-.6.2-.2.6.6h.8l.6-.6.2.2-.6.6v.8l.6.6-.2.2-.6-.6h-.8l-.6.6-.2-.2ZM157.1,48.8l.6-.6v-.8l-.6-.6.2-.2.6.6h.8l.6-.6.2.2-.6.6v.8l.6.6-.2.2-.6-.6h-.8l-.6.6-.2-.2ZM159.5,44l.6-.6v-.8l-.6-.6.2-.2.6.6h.8l.6-.6.2.2-.6.6v.8l.6.6-.2.2-.6-.6h-.8l-.6.6-.2-.2ZM154.7,39.2l.6-.6v-.8l-.6-.6.2-.2.6.6h.8l.6-.6.2.2-.6.6v.8l.6.6-.2.2-.6-.6h-.8l-.6.6-.2-.2ZM159.5,39.2l.6-.6v-.8l-.6-.6.2-.2.6.6h.8l.6-.6.2.2-.6.6v.8l.6.6-.2.2-.6-.6h-.8l-.6.6-.2-.2ZM157.1,44l.6-.6v-.8l-.6-.6.2-.2.6.6h.8l.6-.6.2.2-.6.6v.8l.6.6-.2.2-.6-.6h-.8l-.6.6-.2-.2ZM157.1,39.2l.6-.6v-.8l-.6-.6.2-.2.6.6h.8l.6-.6.2.2-.6.6v.8l.6.6-.2.2-.6-.6h-.8l-.6.6-.2-.2ZM162.7,38.8l-.6.6.6.6h.8l.6-.6-.6-.6h-.8ZM156.3,47.2l.6-.6-.6-.6h-.8l-.6.6.6.6h.8ZM162.7,46l-.6.6.6.6h.8l.6-.6-.6-.6h-.8ZM162.7,41.2l-.6.6.6.6h.8l.6-.6-.6-.6h-.8ZM162.7,43.6l-.6.6.6.6h.8l.6-.6-.6-.6h-.8ZM156.3,44.8l.6-.6-.6-.6h-.8l-.6.6.6.6h.8ZM170,41.6l.6-.6v-.8l-.6-.6.2-.2-.2-.2.6-.6v-.8l-.6-.6.2-.2-.2-.2.6-.6v-.8l-.6-.6.2-.2.6.6h.8l.6-.6.2.2-.6.6v.8l.6.6-.2.2.2.2-.6.6v.8l.6.6-.2.2.2.2-.6.6v.8l.6.6-.2.2.2.2-.6.6v.8l.6.6-.2.2.2.2-.6.6v.8l.6.6-.2.2.2.2-.6.6v.8l.6.6-.2.2-.6-.6h-.8l-.6.6-.2-.2.6-.6v-.8l-.6-.6.2-.2-.2-.2.6-.6v-.8l-.6-.6.2-.2-.2-.2.6-.6v-.8l-.6-.6.2-.2-.2-.2ZM167.6,39.2l.6-.6v-.8l-.6-.6.2-.2.6.6h.8l.6-.6.2.2-.6.6v.8l.6.6-.2.2-.6-.6h-.8l-.6.6-.2-.2ZM174.8,48.8l.6-.6v-.8l-.6-.6.2-.2.6.6h.8l.6-.6.2.2-.6.6v.8l.6.6-.2.2-.6-.6h-.8l-.6.6-.2-.2ZM172.4,39.2l.6-.6v-.8l-.6-.6.2-.2.6.6h.8l.6-.6.2.2-.6.6v.8l.6.6-.2.2-.6-.6h-.8l-.6.6-.2-.2ZM174.8,39.2l.6-.6v-.8l-.6-.6.2-.2.6.6h.8l.6-.6.2.2-.6.6v.8l.6.6-.2.2-.6-.6h-.8l-.6.6-.2-.2ZM172.4,48.8l.6-.6v-.8l-.6-.6.2-.2.6.6h.8l.6-.6.2.2-.6.6v.8l.6.6-.2.2-.6-.6h-.8l-.6.6-.2-.2ZM170.9,46l-.6.6.6.6h.8l.6-.6-.6-.6h-.8ZM170.9,38.8l-.6.6.6.6h.8l.6-.6-.6-.6h-.8ZM170.9,43.6l-.6.6.6.6h.8l.6-.6-.6-.6h-.8ZM171.6,37.6l.6-.6-.6-.6h-.8l-.6.6.6.6h.8ZM170.9,41.2l-.6.6.6.6h.8l.6-.6-.6-.6h-.8ZM188.3,41.6l.6-.6v-.8l-.6-.6.2-.2-.2-.2.6-.6v-.8l-.6-.6.2-.2.6.6h.8l.6-.6.2.2-.6.6v.8l.6.6-.2.2.2.2-.6.6v.8l.6.6-.2.2.2.2-.6.6v.8l.6.6-.2.2.2.2-.6.6v.8l.6.6-.2.2.2.2-.6.6v.8l.6.6-.2.2-.6-.6h-.8l-.6.6-.2-.2.6-.6v-.8l-.6-.6.2-.2-.2-.2.6-.6v-.8l-.6-.6.2-.2-.2-.2.6-.6v-.8l-.6-.6.2-.2-.2-.2ZM181.1,44l.6-.6v-.8l-.6-.6.2-.2.6.6h.8l.6-.6.2.2-.6.6v.8l.6.6-.2.2.2.2-.6.6v.8l.6.6-.2.2.2.2-.6.6v.8l.6.6-.2.2-.6-.6h-.8l-.6.6-.2-.2.6-.6v-.8l-.6-.6.2-.2-.2-.2.6-.6v-.8l-.6-.6.2-.2-.2-.2ZM185.9,48.8l.6-.6v-.8l-.6-.6.2-.2.6.6h.8l.6-.6.2.2-.6.6v.8l.6.6-.2.2-.6-.6h-.8l-.6.6-.2-.2ZM183.5,48.8l.6-.6v-.8l-.6-.6.2-.2.6.6h.8l.6-.6.2.2-.6.6v.8l.6.6-.2.2-.6-.6h-.8l-.6.6-.2-.2ZM185.9,44l.6-.6v-.8l-.6-.6.2-.2.6.6h.8l.6-.6.2.2-.6.6v.8l.6.6-.2.2-.6-.6h-.8l-.6.6-.2-.2ZM181.1,39.2l.6-.6v-.8l-.6-.6.2-.2.6.6h.8l.6-.6.2.2-.6.6v.8l.6.6-.2.2-.6-.6h-.8l-.6.6-.2-.2ZM185.9,39.2l.6-.6v-.8l-.6-.6.2-.2.6.6h.8l.6-.6.2.2-.6.6v.8l.6.6-.2.2-.6-.6h-.8l-.6.6-.2-.2ZM183.5,44l.6-.6v-.8l-.6-.6.2-.2.6.6h.8l.6-.6.2.2-.6.6v.8l.6.6-.2.2-.6-.6h-.8l-.6.6-.2-.2ZM183.5,39.2l.6-.6v-.8l-.6-.6.2-.2.6.6h.8l.6-.6.2.2-.6.6v.8l.6.6-.2.2-.6-.6h-.8l-.6.6-.2-.2ZM189.1,38.8l-.6.6.6.6h.8l.6-.6-.6-.6h-.8ZM182.7,47.2l.6-.6-.6-.6h-.8l-.6.6.6.6h.8ZM189.1,46l-.6.6.6.6h.8l.6-.6-.6-.6h-.8ZM189.1,41.2l-.6.6.6.6h.8l.6-.6-.6-.6h-.8ZM189.1,43.6l-.6.6.6.6h.8l.6-.6-.6-.6h-.8ZM182.7,44.8l.6-.6-.6-.6h-.8l-.6.6.6.6h.8ZM195.6,48.7l.5-.5v-1.5l-.5-.5.3-.3.5.5h1.5l.5-.5.3.3-.5.5v1.5l.5.5-.3.3-.5-.5h-1.5l-.5.5-.3-.3Z"/>
  <line class="st0" x1="118.9" y1="22.8" x2="190.9" y2="22.8"/>
</svg>