<svg width="241" height="50" viewBox="0 0 241 50" fill="none" xmlns="http://www.w3.org/2000/svg">
<path d="M25.653 27.512C23.445 28.952 22.533 29.336 21.381 29.336C19.845 29.336 18.789 28.232 18.789 26.6C18.789 24.248 20.853 21.176 24.021 18.728C26.565 16.76 29.013 15.8 31.557 15.8C33.765 15.8 35.493 16.472 35.493 17.384C35.493 17.912 35.109 18.344 34.677 18.344C34.437 18.344 34.197 18.248 34.005 18.152L32.901 17.528C32.181 17.144 30.981 16.904 30.021 16.904C28.005 16.904 26.133 17.816 24.405 19.64C22.581 21.608 21.189 24.2 21.189 25.736C21.189 26.888 21.909 27.704 22.965 27.704C23.973 27.704 25.029 27.128 26.133 26.024C26.997 25.208 27.429 24.632 28.821 22.616C31.029 19.352 31.701 18.68 32.805 18.68C33.285 18.68 33.573 18.92 33.573 19.352C33.573 19.832 33.285 20.072 32.805 20.072L32.229 20.12C31.077 20.216 30.357 21.416 27.717 27.656C24.837 34.52 22.869 37.88 20.277 40.376C17.349 43.16 13.221 44.936 9.429 44.936C5.493 44.936 2.757 42.68 2.757 39.512C2.757 36.584 5.253 34.136 8.325 34.136C10.437 34.136 12.165 35.288 12.165 36.68C12.165 37.304 11.685 37.832 11.109 37.832C10.725 37.832 10.485 37.64 10.149 37.208C9.189 35.912 8.565 35.528 7.365 35.528C5.349 35.528 3.621 37.352 3.621 39.464C3.621 42.104 6.069 44.168 9.333 44.168C12.309 44.168 15.333 42.968 17.541 40.952C19.173 39.464 20.805 37.064 22.293 33.944L23.685 31.208C24.405 29.672 25.029 28.568 25.653 27.512ZM35.0393 29H32.5912C32.9752 28.52 33.6472 27.512 34.2233 26.6L35.2313 24.872L39.0713 18.584C39.3113 18.2 39.3593 18.008 39.3593 17.912C39.3593 17.768 39.2633 17.624 39.1193 17.624C38.7353 17.624 37.6793 18.248 36.2393 19.304L36.0473 19.448L35.7593 18.92C37.4873 17.336 39.8393 15.992 40.7993 15.992C41.2793 15.992 41.6633 16.328 41.6633 16.808C41.6633 17.288 41.3753 18.008 40.7993 19.064C42.4313 17.336 44.3033 16.184 45.5033 16.184C46.4153 16.184 47.0393 16.616 47.0393 17.288C47.0393 17.816 46.7032 18.248 46.2713 18.248C46.1273 18.248 45.9353 18.2 45.6953 18.104L45.3593 17.912C45.1193 17.816 44.8313 17.768 44.5913 17.768C42.9593 17.768 40.8473 19.448 38.7353 22.568C37.3913 24.488 35.7593 27.272 35.0393 29ZM58.1666 18.824L55.0946 23.96C54.7586 24.536 54.3266 25.304 53.9906 25.976C53.6546 26.648 53.5586 26.888 53.5586 27.176C53.5586 27.464 53.7026 27.656 53.9906 27.656C54.4226 27.656 55.4306 26.984 56.8226 25.736L57.1586 26.312C55.4306 28.04 53.3666 29.288 52.1666 29.288C51.4946 29.288 51.0146 28.904 51.0146 28.328C51.0146 27.8 51.3026 26.984 51.7346 26.168C49.6706 28.136 47.7986 29.24 46.4546 29.24C44.9666 29.24 44.0546 28.28 44.0546 26.696C44.0546 24.2 46.2626 20.888 49.5266 18.392C51.9746 16.568 54.3266 15.656 56.6786 15.656C58.5026 15.656 59.8946 16.28 59.8946 17.096C59.8946 17.528 59.5106 17.864 58.9826 17.864C58.7906 17.864 58.5506 17.816 58.2146 17.672C57.8786 17.528 57.5906 17.432 57.2546 17.288C56.6786 17.048 55.8626 16.904 55.1426 16.904C53.7986 16.904 52.4546 17.432 51.0146 18.488C48.5666 20.36 46.5026 23.672 46.5026 25.736C46.5026 26.744 47.0786 27.416 47.8946 27.416C49.2386 27.416 51.0146 26.168 52.7426 24.008C53.9426 22.52 55.4306 20.36 56.2946 18.824H58.1666ZM62.8376 25.256C62.7896 24.968 62.7416 24.776 62.7416 24.68L62.6456 24.104L62.3576 22.52C61.9736 20.408 61.8296 19.496 61.8296 18.824C61.8296 17.24 62.8376 16.376 64.6136 16.376C65.0456 16.376 65.7656 16.376 66.5816 16.472H66.7736L67.0136 16.52L67.0616 16.376L68.5496 13.544C73.2056 4.808 77.9096 0.391999 82.7096 0.391999C84.3416 0.391999 85.2536 0.871999 85.2536 1.688C85.2536 2.216 84.8696 2.552 84.2456 2.552C84.0056 2.552 83.6696 2.456 83.4296 2.36L82.7576 1.976C82.2776 1.688 81.6536 1.544 81.1256 1.544C79.9256 1.544 78.4376 2.312 76.9016 3.704C75.8456 4.616 74.5496 6.248 73.5896 7.832C72.8216 9.08 71.4776 11.672 70.2776 14.216L69.7016 15.464L69.1256 16.664H69.2696C69.7976 16.712 70.3256 16.712 70.4216 16.712C71.5736 16.712 72.1976 16.424 72.2936 15.704L72.3896 15.176C72.4856 14.696 72.8216 14.408 73.2536 14.408C73.7336 14.408 74.0696 14.792 74.0696 15.32C74.0696 16.568 72.8696 17.432 71.0936 17.432C70.5656 17.432 69.3176 17.432 68.8376 17.384L68.0216 19.064L67.2056 20.792L64.0856 27.512L63.8936 27.992C63.9416 28.664 63.9896 29.096 63.9896 29.72C63.9896 38.552 59.1896 44.552 52.0856 44.552C50.0216 44.552 48.5336 43.832 48.5336 42.872C48.5336 42.44 48.8696 42.104 49.3976 42.104C49.6856 42.104 49.8296 42.2 50.3576 42.536C50.7896 42.776 51.1256 42.92 51.3656 42.92C52.0856 42.92 53.0456 42.056 54.6776 39.896C55.5416 38.792 56.4536 37.448 57.5096 35.72C58.9496 33.32 60.1976 30.92 62.0696 26.936L62.4536 26.12L62.8376 25.256ZM63.4616 24.008L64.3736 22.04L65.2856 20.072C65.6216 19.4 66.0536 18.488 66.5816 17.384L66.6296 17.24C66.5816 17.24 66.5336 17.24 66.5336 17.24C66.2456 17.24 66.0056 17.192 65.9576 17.192C64.0376 17.192 63.0296 18.344 63.0296 20.456C63.0296 21.368 63.1256 22.328 63.3656 23.528L63.4616 24.008ZM63.1736 29.432L62.9816 29.72L60.9656 33.368C58.5656 37.304 55.3496 41.144 52.8056 43.016C53.2376 43.064 53.4776 43.112 53.8136 43.112C59.1416 43.112 63.1736 37.304 63.1736 29.672V29.432ZM74.9561 27.992C75.0041 28.664 75.0521 29.096 75.0521 29.72C75.0521 38.552 70.2521 44.552 63.1481 44.552C61.0841 44.552 59.5961 43.832 59.5961 42.872C59.5961 42.44 59.9321 42.104 60.4601 42.104C60.7481 42.104 60.8921 42.2 61.4201 42.536C61.8521 42.776 62.1881 42.92 62.4281 42.92C63.1481 42.92 64.1081 42.056 65.7401 39.896C66.6041 38.792 67.5161 37.448 68.5721 35.72C70.0121 33.32 71.2601 30.92 73.1321 26.936L73.5161 26.12L73.9001 25.256C73.8521 24.968 73.8041 24.776 73.8041 24.68L73.7081 24.104L73.4201 22.52C73.0361 20.408 72.8921 19.496 72.8921 18.824C72.8921 17.24 73.9001 16.376 75.6761 16.376C76.1081 16.376 76.8281 16.376 77.6441 16.472H77.8361L78.0761 16.52L78.1241 16.376L79.6121 13.544C84.2681 4.808 88.9721 0.391999 93.7721 0.391999C95.4041 0.391999 96.3161 0.871999 96.3161 1.688C96.3161 2.216 95.9321 2.552 95.3081 2.552C95.0681 2.552 94.7321 2.456 94.4921 2.36L93.8201 1.976C93.3401 1.688 92.7161 1.544 92.1881 1.544C90.9881 1.544 89.5001 2.312 87.9641 3.704C86.9081 4.616 85.6121 6.248 84.6521 7.832C83.8841 9.08 82.5401 11.672 81.3401 14.216L80.7641 15.464L80.1881 16.664H80.3321L81.2441 16.712C81.5801 16.76 81.8681 16.76 82.2041 16.76C83.2601 16.76 83.9801 16.616 84.9881 16.328C86.0441 15.944 86.1401 15.944 86.5241 15.944C87.1481 15.944 87.5801 16.328 87.5801 16.952C87.5801 17.432 87.4361 17.864 86.6201 19.112L82.9721 25.112C82.3481 26.168 82.0121 26.888 82.0121 27.176C82.0121 27.368 82.1561 27.512 82.3961 27.512C82.8761 27.512 83.8361 26.936 85.2281 25.784L85.4681 25.592L85.7081 26.168C83.8361 27.992 81.8681 29.192 80.7641 29.192C80.0441 29.192 79.6601 28.808 79.6601 28.136C79.6601 27.56 79.9001 26.984 80.7161 25.592L84.6041 19.112C85.3241 17.96 85.3241 17.912 85.3241 17.72C85.3241 17.576 85.2281 17.48 85.0361 17.48C84.9401 17.48 84.7481 17.48 84.6041 17.48C84.2681 17.528 83.7881 17.576 83.2601 17.576C82.6361 17.576 81.7721 17.528 81.2921 17.48L79.9961 17.384H79.9001L79.0841 19.064L78.2681 20.792L75.1481 27.512L74.9561 27.992ZM89.4041 9.464C89.4041 8.552 90.1241 7.736 90.8921 7.736C91.4201 7.736 91.8041 8.12 91.8041 8.696C91.8041 9.512 91.0361 10.424 90.2681 10.424C89.7401 10.424 89.4041 10.04 89.4041 9.464ZM74.5241 24.008L75.4361 22.04L76.3481 20.072C76.6841 19.4 77.1161 18.488 77.6441 17.384L77.6921 17.24C77.6441 17.24 77.5961 17.24 77.5961 17.24C77.3081 17.24 77.0681 17.192 77.0201 17.192C75.1001 17.192 74.0921 18.344 74.0921 20.456C74.0921 21.368 74.1881 22.328 74.4281 23.528L74.5241 24.008ZM74.2361 29.432L74.0921 29.72L72.0281 33.368C69.6281 37.304 66.4121 41.144 63.8681 43.016C64.3001 43.064 64.5401 43.112 64.8761 43.112C70.2041 43.112 74.2361 37.304 74.2361 29.672V29.432ZM94.1663 20.552L94.0223 20.408L93.6863 20.024C92.3903 18.584 92.1503 18.296 92.1503 17.672C92.1503 16.856 92.9663 16.232 94.0703 16.232C94.5983 16.232 94.9343 16.28 96.1343 16.424H96.2783L96.3743 16.328C99.6383 10.088 102.806 6.968 105.782 6.968C106.55 6.968 106.982 7.208 106.982 7.592C106.982 7.928 106.694 8.216 106.31 8.216C106.214 8.216 106.022 8.168 105.83 8.12C105.35 8.024 105.254 8.024 105.014 8.024C104.102 8.024 103.046 8.504 102.134 9.368C100.742 10.76 99.5903 12.728 98.1023 16.568L98.0063 16.664C98.5343 16.76 98.8703 16.76 99.3023 16.76C100.694 16.76 101.318 16.376 101.414 15.464V15.08C101.462 14.648 101.75 14.408 102.134 14.408C102.662 14.408 102.998 14.744 102.998 15.32C102.998 16.616 101.606 17.48 99.4943 17.48C98.9183 17.48 98.3423 17.432 97.7663 17.336C97.6703 17.624 97.5263 17.864 97.3343 18.488C96.8063 19.832 96.3743 20.84 95.8943 21.656C96.4223 22.52 96.6623 23.336 96.6623 24.2C96.6623 27.272 93.9743 29.288 89.9902 29.288C87.9262 29.288 86.6302 28.712 86.6302 27.8C86.6302 27.368 86.9182 27.08 87.3502 27.08C87.3982 27.08 87.4462 27.08 87.4942 27.128L87.7822 27.224C87.9262 27.272 88.0702 27.272 88.2142 27.272C88.7423 27.272 89.2703 27.032 89.9902 26.408C90.9503 25.592 92.5823 23.384 93.4463 21.8L94.0703 20.696L94.1663 20.552ZM94.5023 19.832L94.5983 19.736C94.8863 19.16 95.1263 18.68 95.3663 18.2C95.7023 17.576 95.7983 17.336 95.9423 17.048C95.6543 17.048 95.4143 17 95.1743 17C94.2623 17 93.6863 17.48 93.6863 18.2C93.6863 18.584 93.8783 19.016 94.2623 19.496L94.4543 19.736C94.4543 19.736 94.5023 19.784 94.5023 19.832ZM95.5103 22.376C93.8303 25.304 91.4303 27.224 88.9823 27.704C89.8943 28.04 90.5183 28.136 91.2863 28.136C93.9263 28.136 95.9903 26.36 95.9903 24.152C95.9903 23.48 95.8463 23 95.5103 22.376ZM111.362 20.552C111.362 22.568 109.778 25.4 107.474 27.368C105.986 28.712 104.45 29.384 103.01 29.384C100.994 29.384 99.7935 28.088 99.7935 25.88C99.7935 23.096 102.146 19.688 105.602 17.528C107.378 16.424 109.442 15.704 111.026 15.704C112.13 15.704 112.898 16.184 112.898 16.808C112.898 17.288 112.418 17.624 111.842 17.624C111.65 17.624 111.266 17.576 110.546 17.336C109.73 17.096 109.442 17.048 108.962 17.048C105.89 17.048 102.05 21.752 102.05 25.544C102.05 27.128 102.77 27.992 104.018 27.992C106.706 27.992 109.73 24.536 109.73 21.512C109.73 20.936 109.73 20.696 109.442 19.928C109.346 19.688 109.298 19.448 109.298 19.256C109.298 18.824 109.73 18.392 110.21 18.392C110.93 18.392 111.362 19.256 111.362 20.552ZM117.808 9.512L118.352 8.968V7.432L117.808 6.888L118.096 6.6L118.64 7.144H120.176L120.72 6.6L121.008 6.888L120.464 7.432V8.968L121.008 9.512L120.72 9.8L120.176 9.256H118.64L118.096 9.8L117.808 9.512ZM117.808 15.912L118.352 15.368V13.832L117.808 13.288L118.096 13L118.64 13.544H120.176L120.72 13L121.008 13.288L120.464 13.832V15.368L121.008 15.912L120.72 16.2L120.176 15.656H118.64L118.096 16.2L117.808 15.912ZM121.008 12.712L121.552 12.168V10.632L121.008 10.088L121.296 9.8L121.84 10.344H123.376L123.92 9.8L124.208 10.088L123.664 10.632V12.168L124.208 12.712L123.92 13L123.376 12.456H121.84L121.296 13L121.008 12.712ZM114.608 12.712L115.152 12.168V10.632L114.608 10.088L114.896 9.8L115.44 10.344H116.976L117.52 9.8L117.808 10.088L117.264 10.632V12.168L117.808 12.712L117.52 13L116.976 12.456H115.44L114.896 13L114.608 12.712Z" fill="white"/>
<path d="M80.4 41.584L81 40.984V40.216L80.4 39.616L80.616 39.4L80.4 39.184L81 38.584V37.816L80.4 37.216L80.616 37L81.216 37.6H81.984L82.584 37L82.8 37.216L82.2 37.816V38.584L82.8 39.184L82.584 39.4L82.8 39.616L82.2 40.216V40.984L82.8 41.584L82.584 41.8L82.8 42.016L82.2 42.616V43.384L82.8 43.984L82.584 44.2L82.8 44.416L82.2 45.016V45.784L82.8 46.384L82.584 46.6L82.8 46.816L82.2 47.416V48.184L82.8 48.784L82.584 49L81.984 48.4H81.216L80.616 49L80.4 48.784L81 48.184V47.416L80.4 46.816L80.616 46.6L80.4 46.384L81 45.784V45.016L80.4 44.416L80.616 44.2L80.4 43.984L81 43.384V42.616L80.4 42.016L80.616 41.8L80.4 41.584ZM87.6 41.584L88.2 40.984V40.216L87.6 39.616L87.816 39.4L87.6 39.184L88.2 38.584V37.816L87.6 37.216L87.816 37L88.416 37.6H89.184L89.784 37L90 37.216L89.4 37.816V38.584L90 39.184L89.784 39.4L90 39.616L89.4 40.216V40.984L90 41.584L89.784 41.8L90 42.016L89.4 42.616V43.384L90 43.984L89.784 44.2L90 44.416L89.4 45.016V45.784L90 46.384L89.784 46.6L90 46.816L89.4 47.416V48.184L90 48.784L89.784 49L89.184 48.4H88.416L87.816 49L87.6 48.784L88.2 48.184V47.416L87.6 46.816L87.816 46.6L87.6 46.384L88.2 45.784V45.016L87.6 44.416L87.816 44.2L87.6 43.984L88.2 43.384V42.616L87.6 42.016L87.816 41.8L87.6 41.584ZM94.8 41.584L95.4 40.984V40.216L94.8 39.616L95.016 39.4L94.8 39.184L95.4 38.584V37.816L94.8 37.216L95.016 37L95.616 37.6H96.384L96.984 37L97.2 37.216L96.6 37.816V38.584L97.2 39.184L96.984 39.4L97.2 39.616L96.6 40.216V40.984L97.2 41.584L96.984 41.8L97.2 42.016L96.6 42.616V43.384L97.2 43.984L96.984 44.2L97.2 44.416L96.6 45.016V45.784L97.2 46.384L96.984 46.6L97.2 46.816L96.6 47.416V48.184L97.2 48.784L96.984 49L96.384 48.4H95.616L95.016 49L94.8 48.784L95.4 48.184V47.416L94.8 46.816L95.016 46.6L94.8 46.384L95.4 45.784V45.016L94.8 44.416L95.016 44.2L94.8 43.984L95.4 43.384V42.616L94.8 42.016L95.016 41.8L94.8 41.584ZM85.2 41.584L85.8 40.984V40.216L85.2 39.616L85.416 39.4L86.016 40H86.784L87.384 39.4L87.6 39.616L87 40.216V40.984L87.6 41.584L87.384 41.8L86.784 41.2H86.016L85.416 41.8L85.2 41.584ZM92.4 41.584L93 40.984V40.216L92.4 39.616L92.616 39.4L93.216 40H93.984L94.584 39.4L94.8 39.616L94.2 40.216V40.984L94.8 41.584L94.584 41.8L93.984 41.2H93.216L92.616 41.8L92.4 41.584ZM90 43.984L90.6 43.384V42.616L90 42.016L90.216 41.8L90.816 42.4H91.584L92.184 41.8L92.4 42.016L91.8 42.616V43.384L92.4 43.984L92.184 44.2L91.584 43.6H90.816L90.216 44.2L90 43.984ZM82.8 43.984L83.4 43.384V42.616L82.8 42.016L83.016 41.8L83.616 42.4H84.384L84.984 41.8L85.2 42.016L84.6 42.616V43.384L85.2 43.984L84.984 44.2L84.384 43.6H83.616L83.016 44.2L82.8 43.984ZM81.216 43.6L80.616 44.2L81.216 44.8H81.984L82.584 44.2L81.984 43.6H81.216ZM81.216 41.2L80.616 41.8L81.216 42.4H81.984L82.584 41.8L81.984 41.2H81.216ZM81.216 46L80.616 46.6L81.216 47.2H81.984L82.584 46.6L81.984 46H81.216ZM88.416 46L87.816 46.6L88.416 47.2H89.184L89.784 46.6L89.184 46H88.416ZM95.616 46L95.016 46.6L95.616 47.2H96.384L96.984 46.6L96.384 46H95.616ZM88.416 41.2L87.816 41.8L88.416 42.4H89.184L89.784 41.8L89.184 41.2H88.416ZM88.416 38.8L87.816 39.4L88.416 40H89.184L89.784 39.4L89.184 38.8H88.416ZM88.416 43.6L87.816 44.2L88.416 44.8H89.184L89.784 44.2L89.184 43.6H88.416ZM81.216 38.8L80.616 39.4L81.216 40H81.984L82.584 39.4L81.984 38.8H81.216ZM95.616 43.6L95.016 44.2L95.616 44.8H96.384L96.984 44.2L96.384 43.6H95.616ZM95.616 38.8L95.016 39.4L95.616 40H96.384L96.984 39.4L96.384 38.8H95.616ZM95.616 41.2L95.016 41.8L95.616 42.4H96.384L96.984 41.8L96.384 41.2H95.616ZM102.009 43.984L102.609 43.384V42.616L102.009 42.016L102.225 41.8L102.009 41.584L102.609 40.984V40.216L102.009 39.616L102.225 39.4L102.009 39.184L102.609 38.584V37.816L102.009 37.216L102.225 37L102.825 37.6H103.593L104.193 37L104.409 37.216L103.809 37.816V38.584L104.409 39.184L104.193 39.4L104.409 39.616L103.809 40.216V40.984L104.409 41.584L104.193 41.8L104.409 42.016L103.809 42.616V43.384L104.409 43.984L104.193 44.2L104.409 44.416L103.809 45.016V45.784L104.409 46.384L104.193 46.6L104.409 46.816L103.809 47.416V48.184L104.409 48.784L104.193 49L103.593 48.4H102.825L102.225 49L102.009 48.784L102.609 48.184V47.416L102.009 46.816L102.225 46.6L102.009 46.384L102.609 45.784V45.016L102.009 44.416L102.225 44.2L102.009 43.984ZM109.209 43.984L109.809 43.384V42.616L109.209 42.016L109.425 41.8L109.209 41.584L109.809 40.984V40.216L109.209 39.616L109.425 39.4L109.209 39.184L109.809 38.584V37.816L109.209 37.216L109.425 37L110.025 37.6H110.793L111.393 37L111.609 37.216L111.009 37.816V38.584L111.609 39.184L111.393 39.4L111.609 39.616L111.009 40.216V40.984L111.609 41.584L111.393 41.8L111.609 42.016L111.009 42.616V43.384L111.609 43.984L111.393 44.2L110.793 43.6H110.025L109.425 44.2L109.209 43.984ZM106.809 43.984L107.409 43.384V42.616L106.809 42.016L107.025 41.8L107.625 42.4H108.393L108.993 41.8L109.209 42.016L108.609 42.616V43.384L109.209 43.984L108.993 44.2L108.393 43.6H107.625L107.025 44.2L106.809 43.984ZM104.409 43.984L105.009 43.384V42.616L104.409 42.016L104.625 41.8L105.225 42.4H105.993L106.593 41.8L106.809 42.016L106.209 42.616V43.384L106.809 43.984L106.593 44.2L105.993 43.6H105.225L104.625 44.2L104.409 43.984ZM104.409 48.784L105.009 48.184V47.416L104.409 46.816L104.625 46.6L105.225 47.2H105.993L106.593 46.6L106.809 46.816L106.209 47.416V48.184L106.809 48.784L106.593 49L105.993 48.4H105.225L104.625 49L104.409 48.784ZM106.809 39.184L107.409 38.584V37.816L106.809 37.216L107.025 37L107.625 37.6H108.393L108.993 37L109.209 37.216L108.609 37.816V38.584L109.209 39.184L108.993 39.4L108.393 38.8H107.625L107.025 39.4L106.809 39.184ZM106.809 48.784L107.409 48.184V47.416L106.809 46.816L107.025 46.6L107.625 47.2H108.393L108.993 46.6L109.209 46.816L108.609 47.416V48.184L109.209 48.784L108.993 49L108.393 48.4H107.625L107.025 49L106.809 48.784ZM109.209 48.784L109.809 48.184V47.416L109.209 46.816L109.425 46.6L110.025 47.2H110.793L111.393 46.6L111.609 46.816L111.009 47.416V48.184L111.609 48.784L111.393 49L110.793 48.4H110.025L109.425 49L109.209 48.784ZM104.409 39.184L105.009 38.584V37.816L104.409 37.216L104.625 37L105.225 37.6H105.993L106.593 37L106.809 37.216L106.209 37.816V38.584L106.809 39.184L106.593 39.4L105.993 38.8H105.225L104.625 39.4L104.409 39.184ZM102.825 41.2L102.225 41.8L102.825 42.4H103.593L104.193 41.8L103.593 41.2H102.825ZM103.593 40L104.193 39.4L103.593 38.8H102.825L102.225 39.4L102.825 40H103.593ZM110.025 41.2L109.425 41.8L110.025 42.4H110.793L111.393 41.8L110.793 41.2H110.025ZM110.793 40L111.393 39.4L110.793 38.8H110.025L109.425 39.4L110.025 40H110.793ZM102.825 43.6L102.225 44.2L102.825 44.8H103.593L104.193 44.2L103.593 43.6H102.825ZM102.825 46L102.225 46.6L102.825 47.2H103.593L104.193 46.6L103.593 46H102.825ZM117.008 41.584L117.608 40.984V40.216L117.008 39.616L117.224 39.4L117.008 39.184L117.608 38.584V37.816L117.008 37.216L117.224 37L117.008 36.784L117.608 36.184V35.416L117.008 34.816L117.224 34.6L117.824 35.2H118.592L119.192 34.6L119.408 34.816L118.808 35.416V36.184L119.408 36.784L119.192 37L119.408 37.216L118.808 37.816V38.584L119.408 39.184L119.192 39.4L119.408 39.616L118.808 40.216V40.984L119.408 41.584L119.192 41.8L119.408 42.016L118.808 42.616V43.384L119.408 43.984L119.192 44.2L119.408 44.416L118.808 45.016V45.784L119.408 46.384L119.192 46.6L119.408 46.816L118.808 47.416V48.184L119.408 48.784L119.192 49L118.592 48.4H117.824L117.224 49L117.008 48.784L117.608 48.184V47.416L117.008 46.816L117.224 46.6L117.008 46.384L117.608 45.784V45.016L117.008 44.416L117.224 44.2L117.008 43.984L117.608 43.384V42.616L117.008 42.016L117.224 41.8L117.008 41.584ZM114.608 39.184L115.208 38.584V37.816L114.608 37.216L114.824 37L115.424 37.6H116.192L116.792 37L117.008 37.216L116.408 37.816V38.584L117.008 39.184L116.792 39.4L116.192 38.8H115.424L114.824 39.4L114.608 39.184ZM121.808 48.784L122.408 48.184V47.416L121.808 46.816L122.024 46.6L122.624 47.2H123.392L123.992 46.6L124.208 46.816L123.608 47.416V48.184L124.208 48.784L123.992 49L123.392 48.4H122.624L122.024 49L121.808 48.784ZM119.408 39.184L120.008 38.584V37.816L119.408 37.216L119.624 37L120.224 37.6H120.992L121.592 37L121.808 37.216L121.208 37.816V38.584L121.808 39.184L121.592 39.4L120.992 38.8H120.224L119.624 39.4L119.408 39.184ZM121.808 39.184L122.408 38.584V37.816L121.808 37.216L122.024 37L122.624 37.6H123.392L123.992 37L124.208 37.216L123.608 37.816V38.584L124.208 39.184L123.992 39.4L123.392 38.8H122.624L122.024 39.4L121.808 39.184ZM119.408 48.784L120.008 48.184V47.416L119.408 46.816L119.624 46.6L120.224 47.2H120.992L121.592 46.6L121.808 46.816L121.208 47.416V48.184L121.808 48.784L121.592 49L120.992 48.4H120.224L119.624 49L119.408 48.784ZM117.824 46L117.224 46.6L117.824 47.2H118.592L119.192 46.6L118.592 46H117.824ZM117.824 38.8L117.224 39.4L117.824 40H118.592L119.192 39.4L118.592 38.8H117.824ZM117.824 43.6L117.224 44.2L117.824 44.8H118.592L119.192 44.2L118.592 43.6H117.824ZM118.592 37.6L119.192 37L118.592 36.4H117.824L117.224 37L117.824 37.6H118.592ZM117.824 41.2L117.224 41.8L117.824 42.4H118.592L119.192 41.8L118.592 41.2H117.824ZM135.248 41.584L135.848 40.984V40.216L135.248 39.616L135.464 39.4L135.248 39.184L135.848 38.584V37.816L135.248 37.216L135.464 37L136.064 37.6H136.832L137.432 37L137.648 37.216L137.048 37.816V38.584L137.648 39.184L137.432 39.4L137.648 39.616L137.048 40.216V40.984L137.648 41.584L137.432 41.8L137.648 42.016L137.048 42.616V43.384L137.648 43.984L137.432 44.2L137.648 44.416L137.048 45.016V45.784L137.648 46.384L137.432 46.6L137.648 46.816L137.048 47.416V48.184L137.648 48.784L137.432 49L136.832 48.4H136.064L135.464 49L135.248 48.784L135.848 48.184V47.416L135.248 46.816L135.464 46.6L135.248 46.384L135.848 45.784V45.016L135.248 44.416L135.464 44.2L135.248 43.984L135.848 43.384V42.616L135.248 42.016L135.464 41.8L135.248 41.584ZM128.048 43.984L128.648 43.384V42.616L128.048 42.016L128.264 41.8L128.864 42.4H129.632L130.232 41.8L130.448 42.016L129.848 42.616V43.384L130.448 43.984L130.232 44.2L130.448 44.416L129.848 45.016V45.784L130.448 46.384L130.232 46.6L130.448 46.816L129.848 47.416V48.184L130.448 48.784L130.232 49L129.632 48.4H128.864L128.264 49L128.048 48.784L128.648 48.184V47.416L128.048 46.816L128.264 46.6L128.048 46.384L128.648 45.784V45.016L128.048 44.416L128.264 44.2L128.048 43.984ZM132.848 48.784L133.448 48.184V47.416L132.848 46.816L133.064 46.6L133.664 47.2H134.432L135.032 46.6L135.248 46.816L134.648 47.416V48.184L135.248 48.784L135.032 49L134.432 48.4H133.664L133.064 49L132.848 48.784ZM130.448 48.784L131.048 48.184V47.416L130.448 46.816L130.664 46.6L131.264 47.2H132.032L132.632 46.6L132.848 46.816L132.248 47.416V48.184L132.848 48.784L132.632 49L132.032 48.4H131.264L130.664 49L130.448 48.784ZM132.848 43.984L133.448 43.384V42.616L132.848 42.016L133.064 41.8L133.664 42.4H134.432L135.032 41.8L135.248 42.016L134.648 42.616V43.384L135.248 43.984L135.032 44.2L134.432 43.6H133.664L133.064 44.2L132.848 43.984ZM128.048 39.184L128.648 38.584V37.816L128.048 37.216L128.264 37L128.864 37.6H129.632L130.232 37L130.448 37.216L129.848 37.816V38.584L130.448 39.184L130.232 39.4L129.632 38.8H128.864L128.264 39.4L128.048 39.184ZM132.848 39.184L133.448 38.584V37.816L132.848 37.216L133.064 37L133.664 37.6H134.432L135.032 37L135.248 37.216L134.648 37.816V38.584L135.248 39.184L135.032 39.4L134.432 38.8H133.664L133.064 39.4L132.848 39.184ZM130.448 43.984L131.048 43.384V42.616L130.448 42.016L130.664 41.8L131.264 42.4H132.032L132.632 41.8L132.848 42.016L132.248 42.616V43.384L132.848 43.984L132.632 44.2L132.032 43.6H131.264L130.664 44.2L130.448 43.984ZM130.448 39.184L131.048 38.584V37.816L130.448 37.216L130.664 37L131.264 37.6H132.032L132.632 37L132.848 37.216L132.248 37.816V38.584L132.848 39.184L132.632 39.4L132.032 38.8H131.264L130.664 39.4L130.448 39.184ZM136.064 38.8L135.464 39.4L136.064 40H136.832L137.432 39.4L136.832 38.8H136.064ZM129.632 47.2L130.232 46.6L129.632 46H128.864L128.264 46.6L128.864 47.2H129.632ZM136.064 46L135.464 46.6L136.064 47.2H136.832L137.432 46.6L136.832 46H136.064ZM136.064 41.2L135.464 41.8L136.064 42.4H136.832L137.432 41.8L136.832 41.2H136.064ZM136.064 43.6L135.464 44.2L136.064 44.8H136.832L137.432 44.2L136.832 43.6H136.064ZM129.632 44.8L130.232 44.2L129.632 43.6H128.864L128.264 44.2L128.864 44.8H129.632ZM149.639 41.584L150.239 40.984V40.216L149.639 39.616L149.855 39.4L149.639 39.184L150.239 38.584V37.816L149.639 37.216L149.855 37L149.639 36.784L150.239 36.184V35.416L149.639 34.816L149.855 34.6L149.639 34.384L150.239 33.784V33.016L149.639 32.416L149.855 32.2L150.455 32.8H151.223L151.823 32.2L152.039 32.416L151.439 33.016V33.784L152.039 34.384L151.823 34.6L152.039 34.816L151.439 35.416V36.184L152.039 36.784L151.823 37L152.039 37.216L151.439 37.816V38.584L152.039 39.184L151.823 39.4L152.039 39.616L151.439 40.216V40.984L152.039 41.584L151.823 41.8L152.039 42.016L151.439 42.616V43.384L152.039 43.984L151.823 44.2L152.039 44.416L151.439 45.016V45.784L152.039 46.384L151.823 46.6L152.039 46.816L151.439 47.416V48.184L152.039 48.784L151.823 49L151.223 48.4H150.455L149.855 49L149.639 48.784L150.239 48.184V47.416L149.639 46.816L149.855 46.6L149.639 46.384L150.239 45.784V45.016L149.639 44.416L149.855 44.2L149.639 43.984L150.239 43.384V42.616L149.639 42.016L149.855 41.8L149.639 41.584ZM142.439 39.184L143.039 38.584V37.816L142.439 37.216L142.655 37L143.255 37.6H144.023L144.623 37L144.839 37.216L144.239 37.816V38.584L144.839 39.184L144.623 39.4L144.839 39.616L144.239 40.216V40.984L144.839 41.584L144.623 41.8L144.839 42.016L144.239 42.616V43.384L144.839 43.984L144.623 44.2L144.839 44.416L144.239 45.016V45.784L144.839 46.384L144.623 46.6L144.839 46.816L144.239 47.416V48.184L144.839 48.784L144.623 49L144.023 48.4H143.255L142.655 49L142.439 48.784L143.039 48.184V47.416L142.439 46.816L142.655 46.6L142.439 46.384L143.039 45.784V45.016L142.439 44.416L142.655 44.2L142.439 43.984L143.039 43.384V42.616L142.439 42.016L142.655 41.8L142.439 41.584L143.039 40.984V40.216L142.439 39.616L142.655 39.4L142.439 39.184ZM144.839 48.784L145.439 48.184V47.416L144.839 46.816L145.055 46.6L145.655 47.2H146.423L147.023 46.6L147.239 46.816L146.639 47.416V48.184L147.239 48.784L147.023 49L146.423 48.4H145.655L145.055 49L144.839 48.784ZM147.239 39.184L147.839 38.584V37.816L147.239 37.216L147.455 37L148.055 37.6H148.823L149.423 37L149.639 37.216L149.039 37.816V38.584L149.639 39.184L149.423 39.4L148.823 38.8H148.055L147.455 39.4L147.239 39.184ZM147.239 46.384L147.839 45.784V45.016L147.239 44.416L147.455 44.2L148.055 44.8H148.823L149.423 44.2L149.639 44.416L149.039 45.016V45.784L149.639 46.384L149.423 46.6L148.823 46H148.055L147.455 46.6L147.239 46.384ZM144.839 39.184L145.439 38.584V37.816L144.839 37.216L145.055 37L145.655 37.6H146.423L147.023 37L147.239 37.216L146.639 37.816V38.584L147.239 39.184L147.023 39.4L146.423 38.8H145.655L145.055 39.4L144.839 39.184ZM144.023 47.2L144.623 46.6L144.023 46H143.255L142.655 46.6L143.255 47.2H144.023ZM150.455 43.6L149.855 44.2L150.455 44.8H151.223L151.823 44.2L151.223 43.6H150.455ZM150.455 38.8L149.855 39.4L150.455 40H151.223L151.823 39.4L151.223 38.8H150.455ZM150.455 41.2L149.855 41.8L150.455 42.4H151.223L151.823 41.8L151.223 41.2H150.455ZM151.223 37.6L151.823 37L151.223 36.4H150.455L149.855 37L150.455 37.6H151.223ZM150.455 46L149.855 46.6L150.455 47.2H151.223L151.823 46.6L151.223 46H150.455ZM144.023 40L144.623 39.4L144.023 38.8H143.255L142.655 39.4L143.255 40H144.023ZM151.223 35.2L151.823 34.6L151.223 34H150.455L149.855 34.6L150.455 35.2H151.223ZM144.023 44.8L144.623 44.2L144.023 43.6H143.255L142.655 44.2L143.255 44.8H144.023ZM144.023 42.4L144.623 41.8L144.023 41.2H143.255L142.655 41.8L143.255 42.4H144.023ZM164.03 41.584L164.63 40.984V40.216L164.03 39.616L164.246 39.4L164.03 39.184L164.63 38.584V37.816L164.03 37.216L164.246 37L164.846 37.6H165.614L166.214 37L166.43 37.216L165.83 37.816V38.584L166.43 39.184L166.214 39.4L166.43 39.616L165.83 40.216V40.984L166.43 41.584L166.214 41.8L166.43 42.016L165.83 42.616V43.384L166.43 43.984L166.214 44.2L166.43 44.416L165.83 45.016V45.784L166.43 46.384L166.214 46.6L166.43 46.816L165.83 47.416V48.184L166.43 48.784L166.214 49L165.614 48.4H164.846L164.246 49L164.03 48.784L164.63 48.184V47.416L164.03 46.816L164.246 46.6L164.03 46.384L164.63 45.784V45.016L164.03 44.416L164.246 44.2L164.03 43.984L164.63 43.384V42.616L164.03 42.016L164.246 41.8L164.03 41.584ZM156.83 43.984L157.43 43.384V42.616L156.83 42.016L157.046 41.8L157.646 42.4H158.414L159.014 41.8L159.23 42.016L158.63 42.616V43.384L159.23 43.984L159.014 44.2L159.23 44.416L158.63 45.016V45.784L159.23 46.384L159.014 46.6L159.23 46.816L158.63 47.416V48.184L159.23 48.784L159.014 49L158.414 48.4H157.646L157.046 49L156.83 48.784L157.43 48.184V47.416L156.83 46.816L157.046 46.6L156.83 46.384L157.43 45.784V45.016L156.83 44.416L157.046 44.2L156.83 43.984ZM161.63 48.784L162.23 48.184V47.416L161.63 46.816L161.846 46.6L162.446 47.2H163.214L163.814 46.6L164.03 46.816L163.43 47.416V48.184L164.03 48.784L163.814 49L163.214 48.4H162.446L161.846 49L161.63 48.784ZM159.23 48.784L159.83 48.184V47.416L159.23 46.816L159.446 46.6L160.046 47.2H160.814L161.414 46.6L161.63 46.816L161.03 47.416V48.184L161.63 48.784L161.414 49L160.814 48.4H160.046L159.446 49L159.23 48.784ZM161.63 43.984L162.23 43.384V42.616L161.63 42.016L161.846 41.8L162.446 42.4H163.214L163.814 41.8L164.03 42.016L163.43 42.616V43.384L164.03 43.984L163.814 44.2L163.214 43.6H162.446L161.846 44.2L161.63 43.984ZM156.83 39.184L157.43 38.584V37.816L156.83 37.216L157.046 37L157.646 37.6H158.414L159.014 37L159.23 37.216L158.63 37.816V38.584L159.23 39.184L159.014 39.4L158.414 38.8H157.646L157.046 39.4L156.83 39.184ZM161.63 39.184L162.23 38.584V37.816L161.63 37.216L161.846 37L162.446 37.6H163.214L163.814 37L164.03 37.216L163.43 37.816V38.584L164.03 39.184L163.814 39.4L163.214 38.8H162.446L161.846 39.4L161.63 39.184ZM159.23 43.984L159.83 43.384V42.616L159.23 42.016L159.446 41.8L160.046 42.4H160.814L161.414 41.8L161.63 42.016L161.03 42.616V43.384L161.63 43.984L161.414 44.2L160.814 43.6H160.046L159.446 44.2L159.23 43.984ZM159.23 39.184L159.83 38.584V37.816L159.23 37.216L159.446 37L160.046 37.6H160.814L161.414 37L161.63 37.216L161.03 37.816V38.584L161.63 39.184L161.414 39.4L160.814 38.8H160.046L159.446 39.4L159.23 39.184ZM164.846 38.8L164.246 39.4L164.846 40H165.614L166.214 39.4L165.614 38.8H164.846ZM158.414 47.2L159.014 46.6L158.414 46H157.646L157.046 46.6L157.646 47.2H158.414ZM164.846 46L164.246 46.6L164.846 47.2H165.614L166.214 46.6L165.614 46H164.846ZM164.846 41.2L164.246 41.8L164.846 42.4H165.614L166.214 41.8L165.614 41.2H164.846ZM164.846 43.6L164.246 44.2L164.846 44.8H165.614L166.214 44.2L165.614 43.6H164.846ZM158.414 44.8L159.014 44.2L158.414 43.6H157.646L157.046 44.2L157.646 44.8H158.414ZM172.18 41.584L172.78 40.984V40.216L172.18 39.616L172.396 39.4L172.18 39.184L172.78 38.584V37.816L172.18 37.216L172.396 37L172.18 36.784L172.78 36.184V35.416L172.18 34.816L172.396 34.6L172.996 35.2H173.764L174.364 34.6L174.58 34.816L173.98 35.416V36.184L174.58 36.784L174.364 37L174.58 37.216L173.98 37.816V38.584L174.58 39.184L174.364 39.4L174.58 39.616L173.98 40.216V40.984L174.58 41.584L174.364 41.8L174.58 42.016L173.98 42.616V43.384L174.58 43.984L174.364 44.2L174.58 44.416L173.98 45.016V45.784L174.58 46.384L174.364 46.6L174.58 46.816L173.98 47.416V48.184L174.58 48.784L174.364 49L173.764 48.4H172.996L172.396 49L172.18 48.784L172.78 48.184V47.416L172.18 46.816L172.396 46.6L172.18 46.384L172.78 45.784V45.016L172.18 44.416L172.396 44.2L172.18 43.984L172.78 43.384V42.616L172.18 42.016L172.396 41.8L172.18 41.584ZM169.78 39.184L170.38 38.584V37.816L169.78 37.216L169.996 37L170.596 37.6H171.364L171.964 37L172.18 37.216L171.58 37.816V38.584L172.18 39.184L171.964 39.4L171.364 38.8H170.596L169.996 39.4L169.78 39.184ZM176.98 48.784L177.58 48.184V47.416L176.98 46.816L177.196 46.6L177.796 47.2H178.564L179.164 46.6L179.38 46.816L178.78 47.416V48.184L179.38 48.784L179.164 49L178.564 48.4H177.796L177.196 49L176.98 48.784ZM174.58 39.184L175.18 38.584V37.816L174.58 37.216L174.796 37L175.396 37.6H176.164L176.764 37L176.98 37.216L176.38 37.816V38.584L176.98 39.184L176.764 39.4L176.164 38.8H175.396L174.796 39.4L174.58 39.184ZM176.98 39.184L177.58 38.584V37.816L176.98 37.216L177.196 37L177.796 37.6H178.564L179.164 37L179.38 37.216L178.78 37.816V38.584L179.38 39.184L179.164 39.4L178.564 38.8H177.796L177.196 39.4L176.98 39.184ZM174.58 48.784L175.18 48.184V47.416L174.58 46.816L174.796 46.6L175.396 47.2H176.164L176.764 46.6L176.98 46.816L176.38 47.416V48.184L176.98 48.784L176.764 49L176.164 48.4H175.396L174.796 49L174.58 48.784ZM172.996 46L172.396 46.6L172.996 47.2H173.764L174.364 46.6L173.764 46H172.996ZM172.996 38.8L172.396 39.4L172.996 40H173.764L174.364 39.4L173.764 38.8H172.996ZM172.996 43.6L172.396 44.2L172.996 44.8H173.764L174.364 44.2L173.764 43.6H172.996ZM173.764 37.6L174.364 37L173.764 36.4H172.996L172.396 37L172.996 37.6H173.764ZM172.996 41.2L172.396 41.8L172.996 42.4H173.764L174.364 41.8L173.764 41.2H172.996ZM190.42 41.584L191.02 40.984V40.216L190.42 39.616L190.636 39.4L190.42 39.184L191.02 38.584V37.816L190.42 37.216L190.636 37L191.236 37.6H192.004L192.604 37L192.82 37.216L192.22 37.816V38.584L192.82 39.184L192.604 39.4L192.82 39.616L192.22 40.216V40.984L192.82 41.584L192.604 41.8L192.82 42.016L192.22 42.616V43.384L192.82 43.984L192.604 44.2L192.82 44.416L192.22 45.016V45.784L192.82 46.384L192.604 46.6L192.82 46.816L192.22 47.416V48.184L192.82 48.784L192.604 49L192.004 48.4H191.236L190.636 49L190.42 48.784L191.02 48.184V47.416L190.42 46.816L190.636 46.6L190.42 46.384L191.02 45.784V45.016L190.42 44.416L190.636 44.2L190.42 43.984L191.02 43.384V42.616L190.42 42.016L190.636 41.8L190.42 41.584ZM183.22 43.984L183.82 43.384V42.616L183.22 42.016L183.436 41.8L184.036 42.4H184.804L185.404 41.8L185.62 42.016L185.02 42.616V43.384L185.62 43.984L185.404 44.2L185.62 44.416L185.02 45.016V45.784L185.62 46.384L185.404 46.6L185.62 46.816L185.02 47.416V48.184L185.62 48.784L185.404 49L184.804 48.4H184.036L183.436 49L183.22 48.784L183.82 48.184V47.416L183.22 46.816L183.436 46.6L183.22 46.384L183.82 45.784V45.016L183.22 44.416L183.436 44.2L183.22 43.984ZM188.02 48.784L188.62 48.184V47.416L188.02 46.816L188.236 46.6L188.836 47.2H189.604L190.204 46.6L190.42 46.816L189.82 47.416V48.184L190.42 48.784L190.204 49L189.604 48.4H188.836L188.236 49L188.02 48.784ZM185.62 48.784L186.22 48.184V47.416L185.62 46.816L185.836 46.6L186.436 47.2H187.204L187.804 46.6L188.02 46.816L187.42 47.416V48.184L188.02 48.784L187.804 49L187.204 48.4H186.436L185.836 49L185.62 48.784ZM188.02 43.984L188.62 43.384V42.616L188.02 42.016L188.236 41.8L188.836 42.4H189.604L190.204 41.8L190.42 42.016L189.82 42.616V43.384L190.42 43.984L190.204 44.2L189.604 43.6H188.836L188.236 44.2L188.02 43.984ZM183.22 39.184L183.82 38.584V37.816L183.22 37.216L183.436 37L184.036 37.6H184.804L185.404 37L185.62 37.216L185.02 37.816V38.584L185.62 39.184L185.404 39.4L184.804 38.8H184.036L183.436 39.4L183.22 39.184ZM188.02 39.184L188.62 38.584V37.816L188.02 37.216L188.236 37L188.836 37.6H189.604L190.204 37L190.42 37.216L189.82 37.816V38.584L190.42 39.184L190.204 39.4L189.604 38.8H188.836L188.236 39.4L188.02 39.184ZM185.62 43.984L186.22 43.384V42.616L185.62 42.016L185.836 41.8L186.436 42.4H187.204L187.804 41.8L188.02 42.016L187.42 42.616V43.384L188.02 43.984L187.804 44.2L187.204 43.6H186.436L185.836 44.2L185.62 43.984ZM185.62 39.184L186.22 38.584V37.816L185.62 37.216L185.836 37L186.436 37.6H187.204L187.804 37L188.02 37.216L187.42 37.816V38.584L188.02 39.184L187.804 39.4L187.204 38.8H186.436L185.836 39.4L185.62 39.184ZM191.236 38.8L190.636 39.4L191.236 40H192.004L192.604 39.4L192.004 38.8H191.236ZM184.804 47.2L185.404 46.6L184.804 46H184.036L183.436 46.6L184.036 47.2H184.804ZM191.236 46L190.636 46.6L191.236 47.2H192.004L192.604 46.6L192.004 46H191.236ZM191.236 41.2L190.636 41.8L191.236 42.4H192.004L192.604 41.8L192.004 41.2H191.236ZM191.236 43.6L190.636 44.2L191.236 44.8H192.004L192.604 44.2L192.004 43.6H191.236ZM184.804 44.8L185.404 44.2L184.804 43.6H184.036L183.436 44.2L184.036 44.8H184.804ZM197.771 48.712L198.315 48.168V46.632L197.771 46.088L198.059 45.8L198.603 46.344H200.139L200.683 45.8L200.971 46.088L200.427 46.632V48.168L200.971 48.712L200.683 49L200.139 48.456H198.603L198.059 49L197.771 48.712Z" fill="white"/>
<line x1="121" y1="22.75" x2="193" y2="22.75" stroke="white" stroke-width="0.5"/>
</svg>
